<svg width="209" height="40" viewBox="0 0 209 40" fill="none" xmlns="http://www.w3.org/2000/svg">
<g filter="url(#filter0_d_198_3)">
<path d="M4.10358 1.63281C5.14264 1.87891 6.07233 2.07031 6.89264 2.20703C7.7403 2.31641 8.45123 2.39844 9.02545 2.45312C9.70905 2.53516 10.3106 2.5625 10.8301 2.53516C11.4864 2.50781 12.3067 2.41211 13.2911 2.24805C14.2755 2.08398 15.3145 1.91992 16.4083 1.75586C17.502 1.5918 18.5821 1.45508 19.6485 1.3457C20.7149 1.23633 21.6446 1.22266 22.4376 1.30469C23.2305 1.38672 24.0645 1.57812 24.9395 1.87891C25.8145 2.15234 26.6348 2.53516 27.4005 3.02734C28.1661 3.49219 28.8223 4.06641 29.3692 4.75C29.9434 5.43359 30.2989 6.22656 30.4356 7.12891C30.5723 8.00391 30.4903 8.94727 30.1895 9.95898C29.8887 10.9434 29.4102 11.9141 28.754 12.8711C28.0977 13.8008 27.2774 14.6621 26.293 15.4551C25.3087 16.248 24.2149 16.8906 23.0118 17.3828C22.0547 17.7383 21.0157 18.0117 19.8946 18.2031C18.9376 18.3672 17.8165 18.4766 16.5313 18.5312C15.2735 18.5586 13.9337 18.4219 12.5118 18.1211C12.3204 18.9141 12.211 19.6523 12.1837 20.3359C12.1837 20.9922 12.211 21.5801 12.2657 22.0996C12.3477 22.7012 12.4571 23.248 12.5938 23.7402C12.7579 24.2324 12.963 24.8066 13.209 25.4629C13.4278 26.0098 13.6739 26.6797 13.9473 27.4727C14.2481 28.2383 14.6036 29.0996 15.0137 30.0566C14.5215 30.0566 14.043 30.0703 13.5782 30.0977C13.1133 30.0977 12.6895 30.1113 12.3067 30.1387C11.8692 30.166 11.459 30.1934 11.0762 30.2207C10.6387 30.248 10.1465 30.3027 9.59967 30.3848C9.13483 30.4395 8.54694 30.5215 7.836 30.6309C7.1524 30.7402 6.37311 30.877 5.49811 31.041C6.07233 30.2207 6.5235 29.4688 6.85162 28.7852C7.20709 28.0742 7.46686 27.459 7.63092 26.9395C7.82233 26.3379 7.94537 25.791 8.00006 25.2988C8.0274 24.8887 8.0274 24.1641 8.00006 23.125C8.00006 22.0859 7.98639 20.8828 7.95905 19.5156C7.9317 18.1484 7.89069 16.7129 7.836 15.209C7.78131 13.7051 7.71295 12.2969 7.63092 10.9844C7.54889 9.64453 7.45319 8.49609 7.34381 7.53906C7.26178 6.58203 7.17975 5.95313 7.09772 5.65234C6.98834 5.29688 6.79694 4.91406 6.5235 4.50391C6.30475 4.14844 5.9903 3.73828 5.58014 3.27344C5.19733 2.78125 4.70514 2.23437 4.10358 1.63281ZM12.5938 9.71289C12.5665 9.98633 12.5528 10.2734 12.5528 10.5742C12.5528 11.1484 12.5938 11.8867 12.6758 12.7891C12.8672 13.2539 13.0997 13.6367 13.3731 13.9375C13.6739 14.2383 13.9883 14.4707 14.3165 14.6348C14.6719 14.7988 15.0274 14.9082 15.3829 14.9629C15.7383 15.0176 16.0938 15.0449 16.4493 15.0449C17.2696 15.0176 18.1309 14.8262 19.0333 14.4707C20.2364 13.9512 21.084 13.2129 21.5762 12.2559C22.0684 11.2988 22.3282 10.3145 22.3555 9.30273C22.3829 8.29102 22.2051 7.36133 21.8223 6.51367C21.4669 5.66602 21.0294 5.0918 20.5098 4.79102C20.0723 4.59961 19.5118 4.51758 18.8282 4.54492C18.2266 4.57227 17.4747 4.72266 16.5723 4.99609C15.67 5.26953 14.5626 5.76172 13.2501 6.47266C13.1133 6.96484 13.004 7.40234 12.9219 7.78516C12.8399 8.16797 12.7715 8.50977 12.7169 8.81055C12.6622 9.13867 12.6212 9.43945 12.5938 9.71289ZM30.4766 2.74023C31.4063 2.84961 32.1856 2.93164 32.8145 2.98633C33.4708 3.01367 34.004 3.05469 34.4141 3.10938C34.9063 3.16406 35.2891 3.19141 35.5626 3.19141C35.8633 3.21875 36.3145 3.20508 36.9161 3.15039C37.4356 3.0957 38.1329 3.02734 39.0079 2.94531C39.9102 2.86328 41.0587 2.74023 42.4532 2.57617C41.8243 3.12305 41.3184 3.65625 40.9356 4.17578C40.5801 4.66797 40.3067 5.10547 40.1153 5.48828C39.8692 5.95313 39.7188 6.39062 39.6641 6.80078C39.5547 7.45703 39.459 8.35938 39.377 9.50781C39.3223 10.6289 39.2676 11.8594 39.213 13.1992C39.1583 14.5391 39.1309 15.9199 39.1309 17.3418C39.1309 18.7637 39.1446 20.1172 39.1719 21.4023C39.2266 22.6602 39.3087 23.7812 39.418 24.7656C39.5547 25.75 39.7188 26.4609 39.9102 26.8984C40.1837 27.3906 40.4708 27.8828 40.7715 28.375C41.045 28.7852 41.3731 29.209 41.7559 29.6465C42.1387 30.084 42.5762 30.4395 43.0684 30.7129C41.4551 30.6309 40.17 30.5898 39.213 30.5898H37.7364C37.2989 30.5898 36.7383 30.6172 36.0547 30.6719C35.4805 30.7266 34.7559 30.7812 33.8809 30.8359C33.0059 30.8906 31.9532 30.9727 30.7227 31.082C31.3516 30.3984 31.8438 29.7422 32.1993 29.1133C32.5547 28.4844 32.8419 27.9375 33.0606 27.4727C33.3067 26.9258 33.4708 26.4062 33.5528 25.9141C33.6622 25.2031 33.7442 24.3281 33.7989 23.2891C33.8809 22.2227 33.9356 21.0879 33.963 19.8848C33.9903 18.6543 33.9903 17.4102 33.963 16.1523C33.963 14.8672 33.9356 13.6367 33.8809 12.4609C33.8262 11.2852 33.7442 10.2188 33.6348 9.26172C33.5528 8.30469 33.4434 7.53906 33.3067 6.96484C33.2247 6.60938 33.0606 6.21289 32.8145 5.77539C32.5958 5.39258 32.295 4.95508 31.9122 4.46289C31.5567 3.94336 31.0782 3.36914 30.4766 2.74023ZM43.4786 2.37109C44.5997 2.50781 45.7344 2.60352 46.8829 2.6582C48.0587 2.71289 49.1251 2.74023 50.0821 2.74023C51.2032 2.74023 52.2969 2.71289 53.3633 2.6582C54.4571 2.63086 55.6055 2.57617 56.8087 2.49414C57.8477 2.43945 59.0235 2.37109 60.336 2.28906C61.6485 2.20703 63.0157 2.125 64.4376 2.04297L64.6837 5.61133C64.6837 5.85742 64.6973 6.17187 64.7247 6.55469C64.7247 6.88281 64.7247 7.29297 64.7247 7.78516C64.752 8.27734 64.7794 8.85156 64.8067 9.50781C63.8223 10.3555 62.9337 11.1621 62.1407 11.9277C61.3751 12.666 60.7188 13.3223 60.1719 13.8965C59.5157 14.5801 58.9415 15.209 58.4493 15.7832C57.8204 16.5215 57.1505 17.4238 56.4395 18.4902C55.7286 19.5293 55.0587 20.5547 54.4297 21.5664C53.8282 22.5508 53.336 23.4395 52.9532 24.2324C52.5704 24.998 52.4063 25.4766 52.461 25.668C52.4883 25.8047 52.7618 25.8867 53.2813 25.9141C53.8008 25.9141 54.4297 25.8867 55.168 25.832C55.9337 25.7773 56.7676 25.6953 57.67 25.5859C58.5997 25.4492 59.461 25.3125 60.254 25.1758C61.0743 25.0117 61.7989 24.8477 62.4278 24.6836C63.0567 24.5195 63.4669 24.3555 63.6583 24.1914C63.9044 23.9727 64.1778 23.5762 64.4786 23.002C64.752 22.5098 65.0528 21.8262 65.3809 20.9512C65.7364 20.0488 66.1329 18.8457 66.5704 17.3418C66.5977 18.4629 66.6114 19.4199 66.6114 20.2129C66.6387 21.0059 66.6797 21.6758 66.7344 22.2227C66.7618 22.8516 66.8028 23.3711 66.8575 23.7812C66.8848 24.2188 66.9395 24.7109 67.0215 25.2578C67.0762 25.7227 67.1446 26.3105 67.2266 27.0215C67.3087 27.7324 67.418 28.5254 67.5547 29.4004C65.586 29.1543 63.9317 28.9902 62.5919 28.9082C61.252 28.7988 60.1719 28.7305 59.3516 28.7031C58.3946 28.6758 57.629 28.6758 57.0547 28.7031C56.4532 28.7852 55.6329 28.9082 54.5938 29.0723C53.7188 29.209 52.5567 29.4277 51.1075 29.7285C49.6583 30.002 47.8399 30.3711 45.6524 30.8359C45.5977 30.3164 45.543 29.8652 45.4883 29.4824C45.4337 29.0996 45.379 28.7578 45.3243 28.457C45.2696 28.1562 45.2149 27.8691 45.1602 27.5957C45.1055 27.3496 45.0372 27.0078 44.9551 26.5703C44.9005 26.1875 44.8047 25.7227 44.668 25.1758C44.5587 24.6016 44.4219 23.8906 44.2579 23.043C45.8985 21.3477 47.252 19.9258 48.3184 18.7773C49.4122 17.6016 50.2872 16.6445 50.9434 15.9062C51.709 15.0312 52.3106 14.334 52.7481 13.8145C53.1583 13.2949 53.6915 12.666 54.3477 11.9277C54.8946 11.2988 55.6055 10.5195 56.4805 9.58984C57.3555 8.63281 58.4083 7.49805 59.6387 6.18555C58.3809 6.13086 57.2051 6.13086 56.1114 6.18555C55.045 6.24023 54.1153 6.32227 53.3223 6.43164C52.3926 6.54102 51.5313 6.69141 50.7383 6.88281C50.0001 7.10156 49.2481 7.45703 48.4825 7.94922C47.8262 8.35938 47.1153 8.93359 46.3497 9.67188C45.584 10.4102 44.8594 11.3672 44.1758 12.543C44.1212 11.6406 44.0801 10.875 44.0528 10.2461C44.0255 9.61719 43.9981 9.09766 43.9708 8.6875C43.9434 8.22266 43.9161 7.83984 43.8887 7.53906C43.8887 7.23828 43.8614 6.8418 43.8067 6.34961C43.752 5.93945 43.6973 5.41992 43.6426 4.79102C43.588 4.13477 43.5333 3.32813 43.4786 2.37109ZM69.0313 2.37109C70.1524 2.50781 71.2872 2.60352 72.4356 2.6582C73.6114 2.71289 74.6778 2.74023 75.6348 2.74023C76.7559 2.74023 77.8497 2.71289 78.9161 2.6582C80.0098 2.63086 81.1583 2.57617 82.3614 2.49414C83.4005 2.43945 84.5762 2.37109 85.8887 2.28906C87.2012 2.20703 88.5684 2.125 89.9903 2.04297L90.2364 5.61133C90.2364 5.85742 90.2501 6.17187 90.2774 6.55469C90.2774 6.88281 90.2774 7.29297 90.2774 7.78516C90.3047 8.27734 90.3321 8.85156 90.3594 9.50781C89.3751 10.3555 88.4864 11.1621 87.6934 11.9277C86.9278 12.666 86.2715 13.3223 85.7247 13.8965C85.0684 14.5801 84.4942 15.209 84.002 15.7832C83.3731 16.5215 82.7032 17.4238 81.9922 18.4902C81.2813 19.5293 80.6114 20.5547 79.9825 21.5664C79.3809 22.5508 78.8887 23.4395 78.5059 24.2324C78.1231 24.998 77.959 25.4766 78.0137 25.668C78.0411 25.8047 78.3145 25.8867 78.834 25.9141C79.3536 25.9141 79.9825 25.8867 80.7208 25.832C81.4864 25.7773 82.3204 25.6953 83.2227 25.5859C84.1524 25.4492 85.0137 25.3125 85.8067 25.1758C86.627 25.0117 87.3516 24.8477 87.9805 24.6836C88.6094 24.5195 89.0196 24.3555 89.211 24.1914C89.4571 23.9727 89.7305 23.5762 90.0313 23.002C90.3047 22.5098 90.6055 21.8262 90.9337 20.9512C91.2891 20.0488 91.6856 18.8457 92.1231 17.3418C92.1505 18.4629 92.1641 19.4199 92.1641 20.2129C92.1915 21.0059 92.2325 21.6758 92.2872 22.2227C92.3145 22.8516 92.3555 23.3711 92.4102 23.7812C92.4376 24.2188 92.4922 24.7109 92.5743 25.2578C92.629 25.7227 92.6973 26.3105 92.7794 27.0215C92.8614 27.7324 92.9708 28.5254 93.1075 29.4004C91.1387 29.1543 89.4844 28.9902 88.1446 28.9082C86.8047 28.7988 85.7247 28.7305 84.9044 28.7031C83.9473 28.6758 83.1817 28.6758 82.6075 28.7031C82.0059 28.7852 81.1856 28.9082 80.1465 29.0723C79.2715 29.209 78.1094 29.4277 76.6602 29.7285C75.211 30.002 73.3926 30.3711 71.2051 30.8359C71.1505 30.3164 71.0958 29.8652 71.0411 29.4824C70.9864 29.0996 70.9317 28.7578 70.877 28.457C70.8223 28.1562 70.7676 27.8691 70.713 27.5957C70.6583 27.3496 70.5899 27.0078 70.5079 26.5703C70.4532 26.1875 70.3575 25.7227 70.2208 25.1758C70.1114 24.6016 69.9747 23.8906 69.8106 23.043C71.4512 21.3477 72.8047 19.9258 73.8712 18.7773C74.9649 17.6016 75.8399 16.6445 76.4962 15.9062C77.2618 15.0312 77.8633 14.334 78.3008 13.8145C78.711 13.2949 79.2442 12.666 79.9005 11.9277C80.4473 11.2988 81.1583 10.5195 82.0333 9.58984C82.9083 8.63281 83.961 7.49805 85.1915 6.18555C83.9337 6.13086 82.7579 6.13086 81.6641 6.18555C80.5977 6.24023 79.668 6.32227 78.8751 6.43164C77.9454 6.54102 77.084 6.69141 76.2911 6.88281C75.5528 7.10156 74.8008 7.45703 74.0352 7.94922C73.379 8.35938 72.668 8.93359 71.9024 9.67188C71.1368 10.4102 70.4122 11.3672 69.7286 12.543C69.6739 11.6406 69.6329 10.875 69.6055 10.2461C69.5782 9.61719 69.5508 9.09766 69.5235 8.6875C69.4962 8.22266 69.4688 7.83984 69.4415 7.53906C69.4415 7.23828 69.4141 6.8418 69.3594 6.34961C69.3047 5.93945 69.2501 5.41992 69.1954 4.79102C69.1407 4.13477 69.086 3.32813 69.0313 2.37109ZM101.023 3.23242C102.391 3.31445 103.539 3.38281 104.469 3.4375C105.426 3.46484 106.219 3.49219 106.848 3.51953C107.559 3.54687 108.16 3.54687 108.652 3.51953C109.145 3.49219 109.815 3.42383 110.662 3.31445C111.373 3.23242 112.316 3.10938 113.492 2.94531C114.695 2.75391 116.186 2.50781 117.963 2.20703C117.334 2.83594 116.842 3.41016 116.486 3.92969C116.158 4.42188 115.898 4.8457 115.707 5.20117C115.488 5.63867 115.338 6.00781 115.256 6.30859C115.201 6.58203 115.256 7.26563 115.42 8.35938C115.584 9.45312 115.816 10.752 116.117 12.2559C116.418 13.7324 116.746 15.3184 117.102 17.0137C117.457 18.6816 117.813 20.2539 118.168 21.7305C118.523 23.1797 118.838 24.4238 119.111 25.4629C119.412 26.4746 119.631 27.0762 119.768 27.2676C120.178 27.8418 120.438 28.2246 120.547 28.416C120.656 28.5801 120.848 28.7305 121.121 28.8672C121.231 28.9219 121.408 29.0039 121.654 29.1133C121.873 29.2227 122.16 29.3594 122.516 29.5234C122.898 29.6875 123.377 29.8789 123.951 30.0977C122.885 30.1523 121.969 30.1934 121.203 30.2207C120.438 30.2207 119.809 30.2344 119.316 30.2617C118.742 30.2891 118.25 30.3164 117.84 30.3438C117.43 30.3438 116.938 30.3711 116.363 30.4258C115.871 30.4805 115.229 30.5352 114.436 30.5898C113.67 30.6445 112.768 30.6992 111.729 30.7539C112.275 30.3711 112.713 30.0293 113.041 29.7285C113.397 29.4004 113.67 29.127 113.861 28.9082C114.08 28.6348 114.231 28.3887 114.313 28.1699C114.367 27.9238 114.408 27.5547 114.436 27.0625C114.463 26.625 114.463 26.0508 114.436 25.3398C114.408 24.6016 114.34 23.6445 114.231 22.4688L103.443 23.5762C103.17 24.041 102.965 24.4512 102.828 24.8066C102.691 25.1348 102.596 25.4219 102.541 25.668C102.459 25.9688 102.432 26.2148 102.459 26.4062C102.514 26.625 102.609 26.8848 102.746 27.1855C102.883 27.459 103.074 27.7871 103.32 28.1699C103.594 28.5254 103.99 28.9492 104.51 29.4414C103.826 29.4141 103.129 29.4004 102.418 29.4004C101.707 29.4004 101.051 29.4141 100.449 29.4414C99.7383 29.4688 99.0411 29.4961 98.3575 29.5234C97.6739 29.5508 96.8946 29.5918 96.0196 29.6465C95.2813 29.7012 94.42 29.7695 93.4356 29.8516C92.4239 29.9062 91.3438 29.9883 90.1954 30.0977C90.9063 29.7695 91.5079 29.4414 92.0001 29.1133C92.4922 28.7578 92.9024 28.4297 93.2305 28.1289C93.6133 27.8008 93.9415 27.4863 94.2149 27.1855C94.4063 26.9121 94.7891 26.2832 95.3633 25.2988C95.9376 24.2871 96.5801 23.0977 97.2911 21.7305C98.0294 20.3633 98.795 18.9004 99.588 17.3418C100.408 15.7832 101.147 14.3203 101.803 12.9531C102.459 11.5586 102.992 10.3555 103.402 9.34375C103.813 8.33203 104.018 7.67578 104.018 7.375C103.963 7.01953 103.826 6.62305 103.607 6.18555C103.416 5.80273 103.115 5.36523 102.705 4.87305C102.322 4.38086 101.762 3.83398 101.023 3.23242ZM113.738 19.4336C113.574 18.4766 113.424 17.6562 113.287 16.9727C113.15 16.2617 113.041 15.6738 112.959 15.209C112.85 14.6621 112.768 14.1836 112.713 13.7734C112.631 13.3906 112.535 12.8984 112.426 12.2969C112.316 11.7773 112.18 11.1348 112.016 10.3691C111.879 9.57617 111.701 8.63281 111.482 7.53906C109.924 10.6562 108.707 13.0762 107.832 14.7988C106.984 16.4941 106.369 17.7383 105.986 18.5312C105.522 19.4609 105.262 20.0078 105.207 20.1719L113.738 19.4336Z" fill="white"/>
<path d="M128.463 3.23242C129.83 3.31445 130.979 3.38281 131.908 3.4375C132.865 3.46484 133.658 3.49219 134.287 3.51953C134.998 3.54687 135.6 3.54687 136.092 3.51953C136.584 3.49219 137.254 3.42383 138.102 3.31445C138.813 3.23242 139.756 3.10938 140.932 2.94531C142.135 2.75391 143.625 2.50781 145.402 2.20703C144.773 2.83594 144.281 3.41016 143.926 3.92969C143.598 4.42188 143.338 4.8457 143.147 5.20117C142.928 5.63867 142.777 6.00781 142.695 6.30859C142.641 6.58203 142.695 7.26563 142.859 8.35938C143.023 9.45312 143.256 10.752 143.557 12.2559C143.857 13.7324 144.186 15.3184 144.541 17.0137C144.897 18.6816 145.252 20.2539 145.607 21.7305C145.963 23.1797 146.277 24.4238 146.551 25.4629C146.852 26.4746 147.07 27.0762 147.207 27.2676C147.617 27.8418 147.877 28.2246 147.986 28.416C148.096 28.5801 148.287 28.7305 148.561 28.8672C148.67 28.9219 148.848 29.0039 149.094 29.1133C149.313 29.2227 149.6 29.3594 149.955 29.5234C150.338 29.6875 150.816 29.8789 151.391 30.0977C150.324 30.1523 149.408 30.1934 148.643 30.2207C147.877 30.2207 147.248 30.2344 146.756 30.2617C146.182 30.2891 145.69 30.3164 145.279 30.3438C144.869 30.3438 144.377 30.3711 143.803 30.4258C143.311 30.4805 142.668 30.5352 141.875 30.5898C141.109 30.6445 140.207 30.6992 139.168 30.7539C139.715 30.3711 140.152 30.0293 140.481 29.7285C140.836 29.4004 141.109 29.127 141.301 28.9082C141.52 28.6348 141.67 28.3887 141.752 28.1699C141.807 27.9238 141.848 27.5547 141.875 27.0625C141.902 26.625 141.902 26.0508 141.875 25.3398C141.848 24.6016 141.779 23.6445 141.67 22.4688L130.883 23.5762C130.609 24.041 130.404 24.4512 130.268 24.8066C130.131 25.1348 130.035 25.4219 129.981 25.668C129.898 25.9688 129.871 26.2148 129.898 26.4062C129.953 26.625 130.049 26.8848 130.186 27.1855C130.322 27.459 130.514 27.7871 130.76 28.1699C131.033 28.5254 131.43 28.9492 131.949 29.4414C131.266 29.4141 130.568 29.4004 129.857 29.4004C129.147 29.4004 128.49 29.4141 127.889 29.4414C127.178 29.4688 126.481 29.4961 125.797 29.5234C125.113 29.5508 124.334 29.5918 123.459 29.6465C122.721 29.7012 121.859 29.7695 120.875 29.8516C119.863 29.9062 118.783 29.9883 117.635 30.0977C118.346 29.7695 118.947 29.4414 119.44 29.1133C119.932 28.7578 120.342 28.4297 120.67 28.1289C121.053 27.8008 121.381 27.4863 121.654 27.1855C121.846 26.9121 122.229 26.2832 122.803 25.2988C123.377 24.2871 124.02 23.0977 124.731 21.7305C125.469 20.3633 126.234 18.9004 127.027 17.3418C127.848 15.7832 128.586 14.3203 129.242 12.9531C129.898 11.5586 130.432 10.3555 130.842 9.34375C131.252 8.33203 131.457 7.67578 131.457 7.375C131.402 7.01953 131.266 6.62305 131.047 6.18555C130.856 5.80273 130.555 5.36523 130.145 4.87305C129.762 4.38086 129.201 3.83398 128.463 3.23242ZM141.178 19.4336C141.014 18.4766 140.863 17.6562 140.727 16.9727C140.59 16.2617 140.481 15.6738 140.398 15.209C140.289 14.6621 140.207 14.1836 140.152 13.7734C140.07 13.3906 139.975 12.8984 139.865 12.2969C139.756 11.7773 139.619 11.1348 139.455 10.3691C139.318 9.57617 139.141 8.63281 138.922 7.53906C137.363 10.6562 136.147 13.0762 135.272 14.7988C134.424 16.4941 133.809 17.7383 133.426 18.5312C132.961 19.4609 132.701 20.0078 132.647 20.1719L141.178 19.4336ZM147.781 1.05859C148.656 1.19531 149.449 1.31836 150.16 1.42773C150.871 1.50977 151.486 1.57812 152.006 1.63281C152.607 1.71484 153.141 1.7832 153.606 1.83789C154.18 1.91992 155.041 1.82422 156.19 1.55078C157.338 1.25 158.596 0.976562 159.963 0.730469C161.357 0.457031 162.779 0.306641 164.229 0.279297C165.678 0.224609 167.004 0.484375 168.207 1.05859C169.41 1.63281 170.395 2.20703 171.16 2.78125C171.926 3.35547 172.527 3.9707 172.965 4.62695C173.43 5.25586 173.758 5.92578 173.949 6.63672C174.141 7.34766 174.25 8.12695 174.277 8.97461C174.25 10.2324 173.949 11.4492 173.375 12.625C173.129 13.1172 172.801 13.6367 172.391 14.1836C172.008 14.7031 171.529 15.209 170.955 15.7012C170.381 16.1934 169.697 16.6582 168.904 17.0957C168.139 17.5332 167.236 17.916 166.197 18.2441C167.209 18.5449 168.043 18.9004 168.699 19.3105C169.383 19.7207 169.93 20.1035 170.34 20.459C170.832 20.8965 171.201 21.3203 171.447 21.7305C171.748 22.3047 171.953 22.7969 172.063 23.207C172.172 23.6172 172.24 24.0137 172.268 24.3965C172.322 24.752 172.391 25.1211 172.473 25.5039C172.555 25.8867 172.732 26.3242 173.006 26.8164C173.225 27.1992 173.484 27.5957 173.785 28.0059C174.059 28.3613 174.373 28.7441 174.729 29.1543C175.111 29.5645 175.576 29.9609 176.123 30.3438C175.357 30.3711 174.647 30.3848 173.99 30.3848C173.361 30.3848 172.815 30.3848 172.35 30.3848C171.803 30.3848 171.283 30.3711 170.791 30.3438C170.299 30.3164 169.684 30.3027 168.945 30.3027C168.316 30.3027 167.51 30.3027 166.525 30.3027C165.568 30.3027 164.406 30.3164 163.039 30.3438C163.641 29.8789 164.133 29.4141 164.516 28.9492C164.898 28.4844 165.199 28.0605 165.418 27.6777C165.664 27.2402 165.842 26.8164 165.951 26.4062C166.088 25.668 166.102 24.9023 165.992 24.1094C165.91 23.4258 165.691 22.6738 165.336 21.8535C164.981 21.0059 164.406 20.1582 163.613 19.3105C162.82 19.4473 162.15 19.5566 161.604 19.6387C161.084 19.6934 160.633 19.748 160.25 19.8027C159.813 19.8574 159.457 19.8984 159.184 19.9258C158.938 19.9531 158.664 19.9805 158.363 20.0078C158.117 20.0352 157.844 20.0762 157.543 20.1309C157.27 20.1582 157.01 20.1992 156.764 20.2539C156.709 21.4297 156.709 22.4551 156.764 23.3301C156.818 24.1777 156.887 24.8887 156.969 25.4629C157.078 26.1465 157.201 26.7344 157.338 27.2266C157.475 27.7188 157.666 28.1973 157.912 28.6621C158.104 29.0449 158.35 29.4551 158.65 29.8926C158.951 30.3027 159.293 30.6445 159.676 30.918C158.965 30.918 158.281 30.918 157.625 30.918C156.996 30.918 156.422 30.9043 155.902 30.877C155.301 30.877 154.727 30.8633 154.18 30.8359C153.633 30.8086 153.018 30.7949 152.334 30.7949C151.76 30.7949 151.076 30.7949 150.283 30.7949C149.518 30.7949 148.684 30.8086 147.781 30.8359C148.492 30.0977 149.053 29.4688 149.463 28.9492C149.873 28.4297 150.188 27.9922 150.406 27.6367C150.652 27.2539 150.803 26.9258 150.857 26.6523C150.912 26.2148 150.953 25.4355 150.981 24.3145C151.035 23.166 151.076 21.8535 151.104 20.377C151.131 18.9004 151.145 17.3555 151.145 15.7422C151.145 14.1289 151.131 12.625 151.104 11.2305C151.076 9.80859 151.049 8.5918 151.022 7.58008C150.994 6.56836 150.967 5.92578 150.94 5.65234C150.857 5.16016 150.68 4.66797 150.406 4.17578C150.188 3.73828 149.873 3.24609 149.463 2.69922C149.053 2.15234 148.492 1.60547 147.781 1.05859ZM163.285 15.4961C163.559 15.332 163.791 15.168 163.982 15.0039C164.174 14.8398 164.338 14.5801 164.475 14.2246C164.611 13.8418 164.721 13.3086 164.803 12.625C164.912 11.9414 165.035 11.0117 165.172 9.83594C165.281 8.66016 165.199 7.68945 164.926 6.92383C164.68 6.1582 164.338 5.55664 163.9 5.11914C163.49 4.6543 163.025 4.33984 162.506 4.17578C162.014 3.98438 161.576 3.88867 161.193 3.88867C160.428 3.88867 159.676 4.12109 158.938 4.58594C158.199 5.05078 157.639 5.67969 157.256 6.47266C157.119 6.82812 156.996 7.41602 156.887 8.23633C156.805 8.94727 156.75 9.93164 156.723 11.1895C156.695 12.4473 156.736 14.1016 156.846 16.1523C157.885 16.3164 158.801 16.3848 159.594 16.3574C160.387 16.3027 161.057 16.207 161.604 16.0703C162.26 15.9336 162.82 15.7422 163.285 15.4961ZM181.947 3.23242C183.315 3.31445 184.463 3.38281 185.393 3.4375C186.35 3.46484 187.143 3.49219 187.772 3.51953C188.482 3.54687 189.084 3.54687 189.576 3.51953C190.068 3.49219 190.738 3.42383 191.586 3.31445C192.297 3.23242 193.24 3.10938 194.416 2.94531C195.619 2.75391 197.109 2.50781 198.887 2.20703C198.258 2.83594 197.766 3.41016 197.41 3.92969C197.082 4.42188 196.822 4.8457 196.631 5.20117C196.412 5.63867 196.262 6.00781 196.18 6.30859C196.125 6.58203 196.18 7.26563 196.344 8.35938C196.508 9.45312 196.74 10.752 197.041 12.2559C197.342 13.7324 197.67 15.3184 198.025 17.0137C198.381 18.6816 198.736 20.2539 199.092 21.7305C199.447 23.1797 199.762 24.4238 200.035 25.4629C200.336 26.4746 200.555 27.0762 200.691 27.2676C201.102 27.8418 201.361 28.2246 201.471 28.416C201.58 28.5801 201.772 28.7305 202.045 28.8672C202.154 28.9219 202.332 29.0039 202.578 29.1133C202.797 29.2227 203.084 29.3594 203.44 29.5234C203.822 29.6875 204.301 29.8789 204.875 30.0977C203.809 30.1523 202.893 30.1934 202.127 30.2207C201.361 30.2207 200.732 30.2344 200.24 30.2617C199.666 30.2891 199.174 30.3164 198.764 30.3438C198.354 30.3438 197.861 30.3711 197.287 30.4258C196.795 30.4805 196.152 30.5352 195.359 30.5898C194.594 30.6445 193.691 30.6992 192.652 30.7539C193.199 30.3711 193.637 30.0293 193.965 29.7285C194.32 29.4004 194.594 29.127 194.785 28.9082C195.004 28.6348 195.154 28.3887 195.236 28.1699C195.291 27.9238 195.332 27.5547 195.359 27.0625C195.387 26.625 195.387 26.0508 195.359 25.3398C195.332 24.6016 195.264 23.6445 195.154 22.4688L184.367 23.5762C184.094 24.041 183.889 24.4512 183.752 24.8066C183.615 25.1348 183.52 25.4219 183.465 25.668C183.383 25.9688 183.356 26.2148 183.383 26.4062C183.438 26.625 183.533 26.8848 183.67 27.1855C183.807 27.459 183.998 27.7871 184.244 28.1699C184.518 28.5254 184.914 28.9492 185.434 29.4414C184.75 29.4141 184.053 29.4004 183.342 29.4004C182.631 29.4004 181.975 29.4141 181.373 29.4414C180.662 29.4688 179.965 29.4961 179.281 29.5234C178.598 29.5508 177.818 29.5918 176.943 29.6465C176.205 29.7012 175.344 29.7695 174.359 29.8516C173.348 29.9062 172.268 29.9883 171.119 30.0977C171.83 29.7695 172.432 29.4414 172.924 29.1133C173.416 28.7578 173.826 28.4297 174.154 28.1289C174.537 27.8008 174.865 27.4863 175.139 27.1855C175.33 26.9121 175.713 26.2832 176.287 25.2988C176.861 24.2871 177.504 23.0977 178.215 21.7305C178.953 20.3633 179.719 18.9004 180.512 17.3418C181.332 15.7832 182.07 14.3203 182.727 12.9531C183.383 11.5586 183.916 10.3555 184.326 9.34375C184.736 8.33203 184.941 7.67578 184.941 7.375C184.887 7.01953 184.75 6.62305 184.531 6.18555C184.34 5.80273 184.039 5.36523 183.629 4.87305C183.246 4.38086 182.686 3.83398 181.947 3.23242ZM194.662 19.4336C194.498 18.4766 194.348 17.6562 194.211 16.9727C194.074 16.2617 193.965 15.6738 193.883 15.209C193.773 14.6621 193.691 14.1836 193.637 13.7734C193.555 13.3906 193.459 12.8984 193.35 12.2969C193.24 11.7773 193.104 11.1348 192.94 10.3691C192.803 9.57617 192.625 8.63281 192.406 7.53906C190.848 10.6562 189.631 13.0762 188.756 14.7988C187.908 16.4941 187.293 17.7383 186.91 18.5312C186.445 19.4609 186.186 20.0078 186.131 20.1719L194.662 19.4336Z" fill="#EEA539"/>
</g>
<defs>
<filter id="filter0_d_198_3" x="0.103577" y="0.197266" width="208.771" height="38.8848" filterUnits="userSpaceOnUse" color-interpolation-filters="sRGB">
<feFlood flood-opacity="0" result="BackgroundImageFix"/>
<feColorMatrix in="SourceAlpha" type="matrix" values="0 0 0 0 0 0 0 0 0 0 0 0 0 0 0 0 0 0 127 0" result="hardAlpha"/>
<feOffset dy="4"/>
<feGaussianBlur stdDeviation="2"/>
<feComposite in2="hardAlpha" operator="out"/>
<feColorMatrix type="matrix" values="0 0 0 0 0 0 0 0 0 0 0 0 0 0 0 0 0 0 0.25 0"/>
<feBlend mode="normal" in2="BackgroundImageFix" result="effect1_dropShadow_198_3"/>
<feBlend mode="normal" in="SourceGraphic" in2="effect1_dropShadow_198_3" result="shape"/>
</filter>
</defs>
</svg>
